<svg width="61" height="162" viewBox="0 0 61 162" fill="none" xmlns="http://www.w3.org/2000/svg">
<path d="M25.105 22.4966C23.4121 21.7109 37.3868 21.9274 35.8008 22.4966C32.1158 23.8165 27.08 23.4149 25.105 22.4966Z" fill="#FD434C"/>
<path d="M11.8188 32.3507C13.0329 30.7096 15.3328 29.4594 15.5466 27.5599C15.7432 25.7825 13.9948 24.2635 13.4647 22.528C12.3874 18.9942 16.2562 17.4229 17.0257 16.5883C19.317 14.1091 15.6235 4.87649 22.8396 0.990004C25.2335 -0.298507 28.7561 -0.375329 30.8337 1.22396C32.0905 0.906198 33.7834 0.0227477 35.6387 0.473203C37.6778 0.969052 41.0593 4.54825 41.5252 6.88084C42.0553 9.55214 40.3454 12.4225 41.6577 14.9157C42.8419 17.1645 46.9244 18.7498 46.0652 23.6978C45.9626 24.2949 44.5134 26.6101 44.0346 27.078C42.5256 28.5585 45.1589 30.9086 45.7488 32.7628L11.8188 32.3507Z" fill="#4D3931"/>
<path d="M44.6115 31.0448C38.8574 27.8148 33.501 27.8846 35.6897 19.4971L25.7848 19.0152C25.3829 25.2413 25.9044 25.6847 22.5615 27.9824C21.8262 28.4887 17.1323 30.5873 17.1323 30.5873C24.5835 35.7519 38.1906 35.3259 44.6115 31.0448Z" fill="#FB9A8B"/>
<path d="M21.6213 8.21475C19.6207 20.5202 32.8558 27.4272 37.571 17.5626C46.0824 -0.242628 23.2458 -1.80001 21.6213 8.21475Z" fill="#FB9A8B"/>
<path d="M39.6912 12.0069C38.1864 11.6507 38.0838 14.1754 38.0752 15.429C38.0582 17.9012 42.0595 12.5726 39.6912 12.0069Z" fill="#FB9A8B"/>
<path d="M20.9671 11.8498C22.4762 11.4971 22.5616 14.0253 22.5616 15.2789C22.5616 17.7476 18.5903 12.4015 20.9671 11.8498Z" fill="#FB9A8B"/>
<path d="M25.8235 13.0999C25.302 13.0999 24.9001 11.5111 26.1655 11.5111C26.8409 11.5146 26.6785 13.0999 25.8235 13.0999Z" fill="#382823"/>
<path d="M34.7709 13.1174C35.2924 13.1174 35.7071 11.5321 34.4417 11.5286C33.762 11.5286 33.9159 13.1174 34.7709 13.1174Z" fill="#382823"/>
<path d="M26.7725 9.48577C27.6103 9.52768 27.5719 10.0654 26.952 10.1946C26.1227 10.3692 25.9517 10.1248 24.1733 10.6137C22.2111 11.1549 24.5324 9.37054 26.7725 9.48577Z" fill="#4D3931"/>
<path d="M33.3086 9.6464C32.4665 9.66036 32.4793 10.1981 33.0906 10.3483C33.9071 10.5508 34.2192 10.3448 35.8437 10.8651C37.7674 11.4831 35.5743 9.60798 33.3086 9.6464Z" fill="#4D3931"/>
<path d="M29.2132 15.6804C31.0044 16.267 30.8847 15.5861 30.3546 15.6141C28.5805 15.7083 30.3589 15.0938 30.4187 12.7437C30.423 12.4958 30.0682 12.4923 30.0297 12.6983C30.0041 12.838 29.9827 13.3548 29.9442 13.5049C29.4355 15.3347 28.6404 15.4918 29.2132 15.6804Z" fill="#EC795C"/>
<path d="M32.629 17.814C32.7957 17.7755 32.9239 17.9292 32.8171 18.0374C29.5724 21.3512 27.1656 17.9257 27.7171 17.772C28.8328 17.4578 30.5984 18.2644 32.629 17.814Z" fill="white"/>
<path d="M21.2832 13.0824C21.326 12.9672 21.544 13.0231 21.5013 13.1348C21.2319 13.8297 21.497 14.2348 21.8518 14.3954C21.9074 14.4198 21.9245 14.4757 21.8946 14.5176C21.6936 14.8109 20.9028 14.0776 21.2832 13.0824Z" fill="#EC795C"/>
<path d="M39.1141 14.563C39.4432 14.2592 39.3834 13.7843 39.3022 13.3653C39.2808 13.2466 39.5031 13.2186 39.5244 13.3373C39.828 14.9192 38.8148 14.8424 39.1141 14.563Z" fill="#EC795C"/>
<path d="M26.1142 20.4678C29.1323 23.1356 33.7663 22.1858 35.0487 20.6738C35.5532 20.0872 35.0915 22.1055 31.2441 22.3185C26.9905 22.556 25.2464 19.6961 26.1142 20.4678Z" fill="#EC795C"/>
<path d="M20.0264 153.258C21.1678 155.905 25.2204 155.884 25.7975 152.86L25.7505 145.548L18.543 145.509L20.0264 153.258Z" fill="#FF9C8A"/>
<path d="M39.644 153.24C40.6956 155.912 44.744 155.978 45.4237 152.968L45.6246 145.656L38.4214 145.46L39.644 153.24Z" fill="#FF9C8A"/>
<path d="M9.06552 160.57C8.85178 160.301 8.80903 159.955 8.9501 159.655C9.36477 158.785 20.4496 153.024 20.0264 153.254C22.0655 154.267 24.7801 153.74 25.7975 152.856C26.5072 154.022 28.5634 158.223 26.5371 158.656C25.323 158.918 9.97608 161.708 9.06552 160.57Z" fill="#F2E8DE"/>
<path d="M10.7202 161.003C9.74549 161.003 9.07861 160.905 8.88623 160.668C8.63401 160.353 8.58271 159.952 8.75371 159.596C9.15128 158.761 17.684 154.267 19.6505 153.272L19.6334 153.261L19.9112 153.111L19.9283 153.132C20.001 153.097 20.0438 153.076 20.048 153.076L20.2019 153.083L20.2233 153.149C22.1855 154.068 24.7291 153.53 25.6396 152.737L25.8491 152.556L25.9859 152.779C26.5929 153.775 28.1576 156.91 27.4223 158.237C27.2513 158.544 26.9691 158.743 26.5887 158.824C26.4519 158.855 15.2687 161.003 10.7202 161.003ZM20.0267 153.457C18.6587 154.152 9.48045 159.023 9.147 159.718C9.03158 159.966 9.06578 160.255 9.24105 160.475C9.98489 161.404 23.9596 159.03 26.4775 158.492C26.734 158.436 26.9136 158.307 27.0332 158.097C27.6104 157.057 26.4519 154.414 25.7294 153.146C24.5709 153.942 22.0572 154.403 20.0267 153.457Z" fill="#FFFFFB"/>
<path d="M14.948 158.443C14.4906 158.443 13.9648 158.321 13.5715 158.167C13.2295 158.035 12.7977 157.804 12.6866 157.472C12.6224 157.287 12.755 157.099 12.9815 157.046C13.2081 156.998 13.439 157.102 13.5031 157.284C13.5287 157.329 13.6954 157.465 14.0759 157.591C14.5718 157.755 15.0249 157.776 15.1617 157.727C15.3755 157.651 15.6234 157.731 15.7175 157.905C15.8115 158.08 15.7132 158.283 15.4995 158.359C15.337 158.419 15.1489 158.443 14.948 158.443Z" fill="#FFFFFB"/>
<path d="M17.2137 157.155C16.3331 157.155 15.4653 156.785 14.995 156.18C14.8668 156.02 14.9266 155.807 15.1233 155.702C15.3199 155.597 15.5807 155.646 15.7089 155.807C16.0595 156.254 16.7648 156.519 17.4189 156.453C17.6497 156.432 17.8635 156.565 17.8891 156.753C17.9191 156.942 17.7523 157.116 17.5215 157.137C17.4189 157.148 17.3163 157.155 17.2137 157.155Z" fill="#FFFFFB"/>
<path d="M19.2143 155.905C18.4192 155.905 17.6283 155.664 17.0384 155.238C16.8631 155.112 16.846 154.892 17.0042 154.749C17.1581 154.606 17.4274 154.592 17.6027 154.721C18.0986 155.08 18.7954 155.259 19.4623 155.203C19.6974 155.182 19.9026 155.321 19.9282 155.51C19.9539 155.699 19.7829 155.87 19.552 155.891C19.4366 155.898 19.3255 155.905 19.2143 155.905Z" fill="#FFFFFB"/>
<path d="M28.4395 160.315C27.8239 159.498 28.7729 158.796 29.7647 158.286C34.3901 155.905 39.644 153.244 39.644 153.244C41.6489 154.302 44.3806 153.83 45.4237 152.971C46.0136 154.012 48.0656 158.387 45.9324 158.792C44.7055 159.023 29.3158 161.481 28.4395 160.315Z" fill="#F2E8DE"/>
<path d="M30.423 160.783C29.2602 160.783 28.4565 160.675 28.2556 160.406C27.6999 159.665 28.1658 158.904 29.6492 158.139C34.2191 155.782 39.4773 153.122 39.5286 153.094L39.644 153.034L39.7551 153.094C41.6917 154.117 44.3165 153.631 45.2698 152.846L45.4835 152.671L45.6118 152.895C46.1846 153.9 47.6381 157.064 46.86 158.37C46.6719 158.684 46.377 158.88 45.9751 158.956C45.8469 158.981 35.1596 160.783 30.423 160.783ZM28.619 160.224C29.3372 161.181 43.252 159.121 45.8854 158.621C46.159 158.569 46.3556 158.44 46.4838 158.22C47.1037 157.183 46.0521 154.564 45.351 153.254C44.1668 154.022 41.6361 154.431 39.644 153.443C38.8574 153.841 34.078 156.264 29.8801 158.429C28.1915 159.299 28.3497 159.871 28.619 160.224Z" fill="#FFFFFB"/>
<path d="M34.1124 158.681C34.091 158.681 34.0697 158.681 34.0483 158.677C33.4925 158.611 32.0177 158.429 31.9066 157.399C31.8852 157.211 32.0604 157.043 32.2913 157.025C32.5264 157.015 32.7273 157.151 32.7487 157.34C32.7744 157.567 32.9539 157.846 34.168 157.993C34.3988 158.021 34.557 158.195 34.5228 158.384C34.5014 158.558 34.3219 158.681 34.1124 158.681Z" fill="#FFFFFB"/>
<path d="M36.3009 157.361C35.3989 157.333 34.5397 156.949 34.0395 156.366C33.907 156.208 33.9497 155.995 34.1421 155.884C34.3345 155.775 34.5995 155.814 34.732 155.967C35.0868 156.379 35.6939 156.648 36.318 156.669C36.5531 156.676 36.7327 156.837 36.7241 157.029C36.7156 157.214 36.5275 157.361 36.3009 157.361Z" fill="#FFFFFB"/>
<path d="M38.1521 156.18C37.4382 156.18 36.5789 155.814 36.2626 155.475C36.1215 155.321 36.16 155.105 36.3438 154.99C36.5319 154.874 36.7969 154.906 36.938 155.056C37.1347 155.269 37.9597 155.573 38.306 155.472C38.524 155.405 38.7677 155.499 38.8489 155.681C38.9258 155.863 38.8147 156.058 38.5924 156.125C38.4556 156.163 38.3103 156.18 38.1521 156.18Z" fill="#FFFFFB"/>
<path d="M29.1365 149.368C29.1237 149.769 28.7133 150.094 28.2088 150.094C15.9954 150.143 15.632 150.412 15.585 149.424C11.8359 72.8952 11.9513 77.8327 12.2762 75.8982C13.2124 70.2867 15.2131 62.4265 17.2565 58.9485C25.8063 58.9939 35.613 58.8507 44.2569 58.5923C46.6508 62.1052 49.3184 70.1051 50.4854 75.5769C51.007 78.0178 48.4933 149.605 48.5019 149.263C48.489 149.665 48.0787 149.989 47.5785 149.993C35.4463 150.091 35.0658 150.359 35.0145 149.368L31.6502 83.7934C31.3466 81.824 29.1237 149.717 29.1365 149.368Z" fill="#323D4D"/>
<path d="M31.7397 79.9349C31.6585 79.9349 31.5772 79.8964 31.543 79.8301C30.0853 77.0226 29.4099 73.9358 29.5894 70.9013C29.5937 70.807 29.6963 70.7302 29.8117 70.7372C29.9271 70.7407 30.0169 70.821 30.0126 70.9188C29.8373 73.9009 30.5042 76.9388 31.9363 79.6974C31.9833 79.7847 31.932 79.886 31.8252 79.9244C31.791 79.9279 31.7653 79.9349 31.7397 79.9349Z" fill="#FFFFFB"/>
<path d="M12.9686 73.1885C12.9088 73.1885 12.8446 73.1675 12.8019 73.1256C12.7292 73.0523 12.742 72.944 12.8318 72.8812L13.1482 72.6717C15.9354 70.8419 17.0896 70.0807 18.8466 60.8516C18.8637 60.7573 18.9749 60.6945 19.0903 60.7084C19.2057 60.7224 19.2869 60.8132 19.2656 60.9075C17.4786 70.2727 16.2902 71.0549 13.4132 72.944L13.0969 73.1535C13.0627 73.178 13.0156 73.1885 12.9686 73.1885Z" fill="#FFFFFB"/>
<path d="M49.0235 73.1431C48.9936 73.1431 48.9594 73.1361 48.9294 73.1256C45.2701 71.6206 44.7101 71.3901 40.8969 60.656C40.8627 60.5652 40.9268 60.4675 41.0422 60.443C41.1577 60.4151 41.2731 60.471 41.303 60.5617C45.0649 71.1527 45.6078 71.3727 49.1218 72.8183C49.2244 72.8602 49.2672 72.965 49.2159 73.0488C49.1774 73.1081 49.1004 73.1431 49.0235 73.1431Z" fill="#FFFFFB"/>
<path d="M28.2858 82.4979C29.3288 82.428 32.7573 82.0544 32.8941 80.092C33.0737 77.5254 28.119 78.5066 27.435 80.9265C27.264 81.5306 27.5761 82.5433 28.2858 82.4979Z" fill="#EE795C"/>
<path d="M42.0251 68.443L47.1294 71.3587C41.619 76.209 33.5993 83.6258 31.5559 83.3604C24.0577 82.3966 30.5427 81.1465 31.5687 80.5005C33.3513 79.3796 30.3033 78.3286 29.2773 79.1038C28.6233 79.5961 28.8883 80.6821 27.9436 80.9475C27.6016 81.0418 27.2168 80.9195 27.1484 80.6367C27.0416 80.2072 28.1488 79.6974 27.5674 79.3866C27.1527 79.1631 27.4391 77.927 28.9311 77.3543C38.3231 73.7332 32.7785 80.9126 42.0251 68.443Z" fill="#FF9C8A"/>
<path d="M32.4068 77.4905C32.0904 76.9562 33.3943 76.6664 33.4712 77.4381C33.4969 77.6895 33.3088 77.9375 33.0438 78.0806C33.6593 78.3635 34.2621 77.4346 34.8905 77.6581C36.0832 78.0771 33.0908 82.7074 29.7008 81.2059C28.974 80.8846 29.6409 80.511 29.9744 80.1304C32.2101 77.5883 30.6541 75.4093 32.4068 77.4905Z" fill="#EE795C"/>
<path d="M14.9736 72.0012L18.9279 68.443L24.8487 76.1601C29.829 76.9912 31.9322 76.2579 33.6422 78.4543C33.7576 78.6009 33.6678 78.7965 33.4584 78.8384C32.411 79.0339 31.6928 78.4857 31.3423 78.3425C29.8931 77.7559 26.9947 79.1282 29.4912 80.5913C33.0052 82.6515 34.7708 78.8628 36.0874 78.8209C37.2801 78.7825 36.267 80.3259 33.5396 82.1731C32.0006 83.2172 32.0519 82.463 29.4998 82.5363C27.9608 82.5782 29.5639 83.0775 14.9736 72.0012Z" fill="#FF9C8A"/>
<path d="M31.7694 82.8715C31.4274 82.8715 31.1453 82.7912 30.876 82.7179C30.6195 82.6481 30.3972 82.5852 30.162 82.6166C28.9309 82.7772 28.187 82.7249 27.9519 82.4595C27.8365 82.3303 27.875 82.1836 27.9177 82.1208C27.9434 82.0789 28.0075 82.0614 28.0588 82.0824C28.1101 82.1033 28.1315 82.1557 28.1058 82.1976C28.1015 82.2011 28.0588 82.2849 28.1229 82.3582C28.2084 82.4525 28.5718 82.6446 30.1236 82.442C30.41 82.4036 30.6665 82.4769 30.9401 82.5503C31.7993 82.7877 32.9749 83.116 36.3136 79.5438C36.5274 79.3168 36.5573 79.0863 36.3863 78.9606C36.2324 78.8454 35.9289 78.8384 35.6425 79.0479C31.9532 81.7611 30.0081 81.2338 29.3455 80.8777C28.6145 80.4901 28.2939 79.7498 28.5632 79.0758C28.8325 78.4089 29.5849 78.0387 30.5767 78.0876C30.9273 78.1051 31.235 78.2343 31.53 78.36C31.6967 78.4298 31.8677 78.5032 32.0387 78.5521C33.1759 78.8803 33.505 78.7581 33.5948 78.6917C33.6546 78.6463 33.6718 78.5695 33.6376 78.4717C33.4837 78.0143 32.3551 77.1902 30.9358 76.9388C30.8802 76.9283 30.8418 76.8829 30.8546 76.8375C30.8674 76.7921 30.923 76.7607 30.9786 76.7712C32.3807 77.0191 33.6418 77.8502 33.8385 78.4263C33.9069 78.6324 33.8214 78.7546 33.7359 78.8174C33.4794 79.013 32.8809 78.9781 31.9661 78.7162C31.778 78.6638 31.6027 78.587 31.4274 78.5136C31.1367 78.3914 30.8631 78.2727 30.5596 78.2587C29.6662 78.2168 28.995 78.5416 28.7599 79.1282C28.5205 79.7253 28.8069 80.3853 29.4567 80.731C30.752 81.4224 33.0134 80.745 35.4971 78.9152C35.8776 78.6359 36.3008 78.6603 36.5274 78.8279C36.7198 78.9746 36.8224 79.2749 36.4761 79.645C33.9966 82.3198 32.6757 82.8715 31.7694 82.8715Z" fill="#EE795C"/>
<path d="M24.421 26.7882C26.909 28.796 33.5436 28.796 36.7798 26.9977C37.0363 26.8545 35.9803 26.5996 46.9541 30.074C48.5187 37.2429 49.4506 54.9748 44.248 58.5924C37.8656 63.0341 21.5311 62.3846 17.2477 58.9486C10.8225 53.7875 14.2253 38.6816 15.0247 29.669C15.3496 29.2988 24.0533 26.4914 24.421 26.7882Z" fill="#FFFFFB"/>
<path d="M30.137 61.8887C24.6437 61.8887 19.3642 60.8866 17.1027 59.0708C11.7377 54.7653 13.1142 43.7553 14.2214 34.9068C14.4566 33.0212 14.6789 31.2438 14.8199 29.655L14.8242 29.6061L14.8584 29.5677C15.2346 29.1347 22.9294 26.6904 24.2162 26.5961C24.3402 26.5891 24.477 26.5891 24.571 26.6625C26.9393 28.5725 33.3816 28.6738 36.6647 26.851C36.8443 26.6625 36.8443 26.6625 40.5164 27.8357C41.987 28.3071 44.0732 28.9706 47.0357 29.9099L47.1468 29.9448L47.1682 30.0391C48.5661 36.4328 49.8229 54.9398 44.3938 58.7216C41.2688 60.897 35.596 61.8887 30.137 61.8887ZM15.2346 29.7493C15.0935 31.3276 14.8712 33.0841 14.6404 34.9452C13.546 43.7169 12.1823 54.6361 17.3977 58.8263C21.8009 62.3601 37.9729 62.7338 44.1116 58.4632C49.0492 55.0271 48.455 38.06 46.7664 30.2032C43.8637 29.2849 41.8117 28.6284 40.3583 28.164C38.0712 27.4342 37.182 27.1513 36.9469 27.1094C36.9341 27.1199 36.917 27.1339 36.8956 27.1443C33.4928 29.0335 26.8111 28.9182 24.3017 26.9418C23.4168 26.872 15.9699 29.3058 15.2346 29.7493Z" fill="#F2E8DE"/>
<path d="M4.3119 38.5384C-3.2034 63.6556 -1.9423 58.6168 21.5868 77.728C22.2024 78.2273 26.1567 76.1392 25.6694 75.4338L12.353 56.2737C15.0719 47.6872 10.4293 38.6536 17.9147 31.6803C18.8509 30.8073 24.2501 26.638 24.2501 26.638C10.1301 29.9972 6.9709 29.648 4.3119 38.5384Z" fill="#E95B4B"/>
<path d="M21.8819 77.9724C21.698 77.9724 21.5441 77.934 21.4373 77.8502C17.6112 74.7424 14.311 72.2282 11.6648 70.2064C-2.21584 59.6225 -2.21584 59.6225 3.91866 39.125L4.10676 38.4965C6.49216 30.528 9.30505 29.8855 19.7658 27.5005C21.1081 27.1932 22.5787 26.858 24.1946 26.4774L25.0367 26.2783L24.3998 26.7707C24.3442 26.8126 18.9963 30.9435 18.0772 31.799C13.4731 36.0871 13.5073 41.1398 13.5458 46.4859C13.5671 49.6915 13.5928 53.0088 12.5796 56.2528L25.8532 75.35C26.1867 75.8319 25.2377 76.5267 24.6392 76.9004C23.874 77.3718 22.6214 77.9724 21.8819 77.9724ZM4.31195 38.5384L4.51715 38.5803L4.32905 39.2088C-1.7456 59.5072 -1.7456 59.5072 11.9512 69.955C14.6017 71.9768 17.9019 74.4945 21.7322 77.6057C21.9161 77.7524 23.1729 77.3718 24.3784 76.621C25.3274 76.0274 25.5583 75.6293 25.4813 75.5176L12.1222 56.3017L12.1436 56.2353C13.1653 53.0123 13.1397 49.695 13.1183 46.4894C13.0798 41.0735 13.0413 35.9579 17.7523 31.572C18.5004 30.8737 22.0101 28.1395 23.4721 27.0081C22.1811 27.3119 20.9841 27.5843 19.8769 27.8357C9.6043 30.1788 6.8427 30.8073 4.51715 38.5803L4.31195 38.5384Z" fill="#BD2F2F"/>
<path d="M56.8164 38.7794C64.3274 63.8896 62.3866 56.9582 40.1143 78.2937C39.5799 78.8035 35.8437 75.9506 36.2369 75.3605L48.7753 56.5147C46.0564 47.9281 50.699 38.8946 43.2136 31.9213C42.5595 31.3137 36.9551 26.8964 36.9551 26.8964C50.9982 30.2452 54.1574 29.896 56.8164 38.7794Z" fill="#E95B4B"/>
<path d="M39.9306 78.5311C39.6698 78.5311 39.3064 78.3984 38.8319 78.1365C37.8444 77.5813 35.6428 75.8947 36.0489 75.2836L48.5488 56.4972C47.5356 53.2532 47.5613 49.9359 47.5826 46.7269C47.6211 41.3808 47.6553 36.328 43.0512 32.04C42.41 31.4428 36.8612 27.071 36.8056 27.0256L36.19 26.5402L37.0151 26.7358C38.6224 27.1199 40.0844 27.4516 41.4225 27.7589C51.8362 30.1369 54.6363 30.7759 57.0217 38.7409L57.1243 39.0796C62.9552 58.5644 62.9552 58.5644 51.8875 68.003C48.8395 70.6045 45.0433 73.8415 40.2768 78.4089C40.1913 78.4892 40.0759 78.5311 39.9306 78.5311ZM37.7161 27.2596C39.1953 28.4293 42.846 31.3171 43.3719 31.8095C48.0828 36.1953 48.0443 41.311 48.0059 46.7269C47.9845 49.9324 47.9588 53.2498 48.9805 56.4728L49.0019 56.5391L48.9634 56.5985L36.4251 75.4443C36.3695 75.542 36.6731 76.0623 37.6648 76.869C38.8661 77.8467 39.798 78.2413 39.9605 78.1784C44.7313 73.6075 48.5317 70.3635 51.584 67.7621C62.4893 58.4597 62.4893 58.4597 56.7139 39.1599L56.6113 38.8212C54.2857 31.0518 51.5369 30.4267 41.3113 28.0906C40.2041 27.8357 39.0072 27.5633 37.7161 27.2596Z" fill="#BD2F2F"/>
<path d="M37.2627 26.9732C34.2746 29.2185 26.3403 29.5467 23.7754 26.7567C26.3831 18.4285 23.1042 25.2936 35.5656 22.5525C35.9503 22.4652 35.8691 22.7061 37.2627 26.9732Z" fill="#E95B4B"/>
<path d="M30.265 28.9252C29.8546 28.9252 29.4442 28.9112 29.0338 28.8798C26.5586 28.6947 24.6306 27.9789 23.6004 26.858L23.5405 26.7916L23.5662 26.7113C23.8184 25.9117 24.0108 25.2552 24.1732 24.714C24.6606 23.0693 24.8273 22.5176 25.2419 22.343C25.5326 22.2208 25.8404 22.3255 26.3021 22.4792C27.435 22.8563 29.7947 23.6385 35.506 22.3814C35.5659 22.3674 35.7027 22.3395 35.8352 22.4023C36.0703 22.5141 36.1515 22.776 36.6047 24.2356C36.8056 24.8781 37.0749 25.7476 37.4596 26.9243L37.4938 27.0256L37.3998 27.0954C35.9079 28.2233 33.095 28.9252 30.265 28.9252ZM24.0022 26.7148C24.9726 27.717 26.7681 28.363 29.0723 28.5341C32.116 28.7611 35.3564 28.0976 37.0236 26.9139C36.656 25.786 36.3952 24.9479 36.1986 24.3229C35.8865 23.3242 35.7155 22.7725 35.6172 22.6991C29.7691 24.0051 27.3196 23.1915 26.144 22.8004C25.7977 22.6852 25.5497 22.6049 25.4343 22.6503C25.1949 22.7515 24.9897 23.4324 24.5836 24.7943C24.4297 25.3181 24.2416 25.9536 24.0022 26.7148Z" fill="#BD2F2F"/>
<path d="M43.2351 16.8292C42.1194 14.1754 45.2059 6.66083 41.1618 2.36231C37.4897 -1.54513 28.4653 -0.102974 30.8678 3.08862C41.8544 17.6917 34.7323 10.467 43.2351 16.8292Z" fill="#4D3931"/>
<path d="M17.0254 16.5883C18.201 13.7948 17.6025 5.47358 20.5351 2.3623C23.9935 -1.31467 30.6923 0.18685 31.0343 1.22394C31.1583 1.87693 32.0132 3.38892 31.3335 3.76605C23.2625 8.27059 23.5318 9.55911 22.4631 13.704C22.0057 15.4674 17.1707 16.5254 17.0254 16.5883Z" fill="#4D3931"/>
<path d="M30.8932 1.12265C30.9189 0.937584 31.2651 0.972503 31.2395 1.15408C31.1283 1.90833 31.0642 2.69052 31.6029 3.22129C31.9491 3.56698 30.4956 3.85681 30.8932 1.12265Z" fill="#382823"/>
<path d="M23.9254 1.44391C25.9731 -0.399816 30.8379 0.95504 30.3164 1.43692C30.2523 1.49628 30.1411 1.49978 30.0685 1.45089C29.1408 0.801397 25.7038 0.263644 24.1819 1.63247C24.0323 1.76865 23.7715 1.58358 23.9254 1.44391Z" fill="#382823"/>
<path d="M30.5001 2.06197C30.7352 2.06895 30.7053 2.35529 30.483 2.34132C29.7905 2.31688 29.0894 2.41814 28.4567 2.63464C27.9865 2.79178 28.0292 1.97118 30.5001 2.06197Z" fill="#382823"/>
<path d="M24.5623 6.371C25.7592 4.57616 29.3202 4.7333 30.3334 3.0083C30.4317 2.84069 30.7481 2.9629 30.6497 3.12702C29.5596 4.97773 25.9901 4.82059 24.87 6.5002C24.7632 6.66781 24.4554 6.53512 24.5623 6.371Z" fill="#382823"/>
<path d="M34.1083 6.47923C33.1122 5.4596 33.621 3.24573 31.8554 3.12352C30.9791 3.06416 33.0866 1.95024 33.7749 4.96026C33.886 5.43865 34.0185 5.9345 34.3819 6.30813C34.5272 6.45479 34.2494 6.62589 34.1083 6.47923Z" fill="#382823"/>
<path d="M32.0691 2.12136C31.8254 2.15279 31.415 1.55568 33.3515 1.98169C33.7919 2.07946 34.2065 2.17025 34.6126 2.09692C34.8349 2.05502 34.9162 2.32739 34.6896 2.36929C33.7705 2.5369 32.8941 2.0201 32.0691 2.12136Z" fill="#382823"/>
<path d="M32.2614 1.06681C33.5867 0.406838 35.2197 0.19034 36.7373 0.4662C36.9638 0.508103 36.8826 0.780471 36.6603 0.738568C35.2282 0.476676 33.6935 0.682698 32.4453 1.30426C32.2486 1.40203 32.0648 1.16458 32.2614 1.06681Z" fill="#382823"/>
<path d="M21.0268 4.11874C21.1636 3.97208 21.4458 4.13969 21.3047 4.28635C20.065 5.60978 19.4109 7.25097 19.4665 8.90264C19.5007 9.8699 18.0814 7.25796 21.0268 4.11874Z" fill="#382823"/>
<path d="M19.2058 13.6062C20.3472 13.3967 22.3735 11.7869 22.1213 9.89081C22.0956 9.70574 22.4462 9.68129 22.4675 9.86287C22.7326 11.8637 20.6165 13.6306 19.2827 13.8786C19.0604 13.9205 18.9792 13.6481 19.2058 13.6062Z" fill="#382823"/>
<path d="M36.4937 8.89564C36.4937 8.71057 36.8442 8.71057 36.8442 8.89564C36.8442 9.29022 36.9895 11.3365 39.8238 13.03C39.9008 13.0754 39.9179 13.1627 39.858 13.2256C39.5417 13.5678 36.4937 11.2631 36.4937 8.89564Z" fill="#382823"/>
<path d="M40.4861 10.9454C39.5371 9.63593 40.6828 8.06458 40.7854 6.79003C40.9093 5.26058 39.5756 3.70319 37.7459 3.24576C37.6518 3.22131 37.6048 3.14449 37.6305 3.07116C37.8057 2.61721 41.3539 4.10476 41.1316 6.80749C41.0248 8.096 39.9261 9.61847 40.7854 10.8022C40.9008 10.9629 40.6015 11.1025 40.4861 10.9454Z" fill="#382823"/>
<path d="M17.2349 27.3433C18.59 21.0614 10.5062 21.3477 19.5861 16.6267C19.7785 16.5254 19.9708 16.7594 19.7742 16.8606C10.9465 21.449 18.9748 20.9008 17.5769 27.3922C17.5384 27.5738 17.1964 27.5249 17.2349 27.3433Z" fill="#382823"/>
<path d="M22.6002 26.0444C23.2628 25.2727 22.0402 23.4464 22.9123 22.748C23.0747 22.6188 23.3227 22.8144 23.1602 22.9471C22.472 23.4988 23.6476 25.325 22.8909 26.205C22.7584 26.3517 22.4677 26.1945 22.6002 26.0444Z" fill="#382823"/>
<path d="M19.8642 25.9885C21.5656 23.7676 19.0477 22.8388 20.6507 20.5621C20.7662 20.4014 21.0697 20.5376 20.9543 20.6983C19.4409 22.8528 21.9546 23.7956 20.1634 26.1351C20.0437 26.2923 19.7445 26.1456 19.8642 25.9885Z" fill="#382823"/>
<path d="M37.0064 22.1509C37.0277 21.9658 37.374 21.9938 37.3526 22.1788C37.2244 23.2788 36.9893 24.9828 38.2076 26.0898C38.7291 26.5577 36.4891 26.61 37.0064 22.1509Z" fill="#382823"/>
<path d="M40.6019 26.631C38.9389 24.7768 40.8926 24.2181 39.8538 21.044C39.7939 20.8659 40.1316 20.7961 40.1915 20.9741C41.2517 24.2146 39.3322 24.7349 40.884 26.4704C41.0208 26.6205 40.7387 26.7812 40.6019 26.631Z" fill="#382823"/>
<path d="M43.3975 23.0238C46.1933 19.2491 41.7217 16.4835 40.4392 16.4835C40.2084 16.4835 40.2084 16.2042 40.4392 16.2042C41.9996 16.2042 46.6293 19.2037 43.6967 23.167C42.7563 24.4381 42.1877 26.5367 42.9187 27.71C42.9614 27.7798 42.9272 27.8636 42.8418 27.8985C42.2689 28.122 41.6533 25.3774 43.3975 23.0238Z" fill="#382823"/>
</svg>
